Coordinates
version=1
nRows=14
nColumns=63
inDegrees=yes

Units are S.I. units (second, meters, Newtons, ...)
If the header above contains a line with 'inDegrees', this indicates whether rotational values are in degrees (yes) or radians (no).

endheader
time	pelvis_tilt	pelvis_list	pelvis_rotation	pelvis_tx	pelvis_ty	pelvis_tz	hip_flexion_r	hip_adduction_r	hip_rotation_r	knee_angle_r	knee_angle_r_beta	ankle_angle_r	subtalar_angle_r	mtp_angle_r	hip_flexion_l	hip_adduction_l	hip_rotation_l	knee_angle_l	knee_angle_l_beta	ankle_angle_l	subtalar_angle_l	mtp_angle_l	L5_S1_Flex_Ext	L5_S1_Lat_Bending	L5_S1_axial_rotation	L4_L5_Flex_Ext	L4_L5_Lat_Bending	L4_L5_axial_rotation	L3_L4_Flex_Ext	L3_L4_Lat_Bending	L3_L4_axial_rotation	L2_L3_Flex_Ext	L2_L3_Lat_Bending	L2_L3_axial_rotation	L1_L2_Flex_Ext	L1_L2_Lat_Bending	L1_L2_axial_rotation	L1_T12_Flex_Ext	L1_T12_Lat_Bending	L1_T12_axial_rotation	Abs_r3	Abs_r2	Abs_r1	Abs_t1	Abs_t2	neck_flexion	neck_bending	neck_rotation	arm_flex_r	arm_add_r	arm_rot_r	elbow_flex_r	pro_sup_r	wrist_flex_r	wrist_dev_r	arm_flex_l	arm_add_l	arm_rot_l	elbow_flex_l	pro_sup_l	wrist_flex_l	wrist_dev_l
4.487805	-3.335665	5.918891	108.693819	0.222798	0.900835	0.660354	-14.355160	-1.281420	-1.665854	3.030024	0.052884	15.378060	-7.320402	0.000000	-8.355234	2.005185	1.617424	9.916639	0.173078	19.068252	3.153406	0.000000	-1.118943	-0.311353	-7.542561	-2.077990	-0.414099	-8.013971	-1.838312	-0.757023	-8.013971	-1.278841	-0.757023	-6.599741	-1.039051	-0.634911	-6.128331	-0.639364	-0.482286	-5.656921	-7.992501	-3.522086	-41.949460	0.000000	0.000000	-2.877385	-4.355847	31.709156	78.777114	26.874541	145.255343	0.053603	0.618367	-69.881738	-24.352679	-32.494625	-16.160952	-9.407557	128.442022	72.617870	8.670792	13.512661
4.512195	-2.644159	5.653975	108.588798	0.219143	0.899658	0.660923	-13.534529	-0.933230	-2.171735	3.621915	0.063214	15.698118	-6.709218	0.000000	-7.643889	1.690721	2.252273	10.318319	0.180089	19.499824	2.151209	0.000000	-1.139711	-0.265524	-7.640030	-2.116557	-0.353147	-8.117532	-1.872431	-0.645595	-8.117532	-1.302575	-0.645595	-6.685026	-1.058335	-0.541456	-6.207524	-0.651231	-0.411297	-5.730022	-8.140840	-3.003660	-42.491554	0.000000	0.000000	-3.366361	-3.273772	30.160002	79.440087	22.795419	138.497366	0.054707	0.617988	-69.878143	-24.334966	-34.630352	-14.122549	-10.845175	124.617250	69.658736	7.696918	12.935502
4.536585	-2.069635	5.366995	108.427873	0.216217	0.898724	0.661388	-12.703510	-0.671974	-2.565259	4.254192	0.074250	15.912355	-6.263102	0.000000	-6.921618	1.459371	2.784217	10.764157	0.187870	19.772516	1.231087	0.000000	-1.165431	-0.234413	-7.694103	-2.164323	-0.311769	-8.174985	-1.914687	-0.569951	-8.174985	-1.331972	-0.569951	-6.732340	-1.082220	-0.478014	-6.251459	-0.665928	-0.363105	-5.770577	-8.324560	-2.651723	-42.792294	0.000000	0.000000	-3.943225	-2.287814	28.639215	79.752666	18.930032	132.507472	0.055564	0.619858	-69.875302	-24.323478	-35.937083	-12.148592	-12.309548	119.860215	71.708782	5.705657	13.028084
4.560976	-1.612786	5.089282	108.193156	0.214106	0.898040	0.661736	-11.910639	-0.488916	-2.778192	4.887854	0.085309	15.995123	-6.047324	0.000000	-6.231747	1.298166	3.164694	11.239151	0.196160	19.921118	0.450613	0.000000	-1.197456	-0.216992	-7.713193	-2.223795	-0.288599	-8.195267	-1.967300	-0.527594	-8.195267	-1.368572	-0.527594	-6.749044	-1.111957	-0.442489	-6.266969	-0.684226	-0.336120	-5.784895	-8.553307	-2.454653	-42.898465	0.000000	0.000000	-4.564483	-1.460907	27.296117	79.790607	15.470592	127.450466	0.056171	0.622384	-69.873277	-24.312758	-36.730121	-10.271109	-13.702486	114.704134	74.622667	2.734146	13.045686
4.585366	-1.274588	4.852961	107.931662	0.212788	0.897583	0.662017	-11.214486	-0.362899	-2.864384	5.482782	0.095693	15.976440	-6.010856	0.000000	-5.601621	1.190926	3.451265	11.755404	0.205170	20.002346	-0.200987	0.000000	-1.236705	-0.212860	-7.719523	-2.296684	-0.283104	-8.201993	-2.031782	-0.517548	-8.201993	-1.413430	-0.517548	-6.754582	-1.148404	-0.434064	-6.272112	-0.706653	-0.329720	-5.789642	-8.833658	-2.407915	-42.933669	0.000000	0.000000	-5.222687	-0.815418	26.246606	79.663167	12.600892	123.423949	0.056504	0.621509	-69.872144	-24.301454	-37.427300	-8.540691	-14.991115	109.567683	78.260661	-1.084523	12.529157
4.609756	-1.075319	4.716487	107.642417	0.212338	0.897324	0.662323	-10.692334	-0.296028	-2.784835	6.000092	0.104721	15.902092	-6.168148	0.000000	-5.092505	1.139776	3.637232	12.316735	0.214968	20.057608	-0.726146	0.000000	-1.287792	-0.226396	-7.717960	-2.391558	-0.301106	-8.200332	-2.115713	-0.550459	-8.200332	-1.471817	-0.550459	-6.753215	-1.195843	-0.461666	-6.270842	-0.735844	-0.350687	-5.788470	-9.198566	-2.561034	-42.924976	0.000000	0.000000	-5.900737	-0.317329	25.504774	79.511300	10.447086	120.424291	0.056594	0.617215	-69.871869	-24.293125	-38.338273	-7.067661	-15.900239	104.682643	82.609308	-5.394098	10.683522
4.634146	-1.012034	4.721610	107.316214	0.212771	0.897223	0.662779	-10.386078	-0.281851	-2.507205	6.415121	0.111965	15.821286	-6.494770	0.000000	-4.746467	1.140068	3.759468	12.909393	0.225311	20.108697	-1.195185	0.000000	-1.352112	-0.258038	-7.703023	-2.511007	-0.343191	-8.184462	-2.221384	-0.627395	-8.184462	-1.545328	-0.627395	-6.740145	-1.255571	-0.526192	-6.258706	-0.772597	-0.399702	-5.777267	-9.657999	-2.918983	-42.841903	0.000000	0.000000	-6.608762	0.062230	25.025999	79.455852	9.075385	118.471662	0.056437	0.609972	-69.872378	-24.288849	-39.467474	-5.943920	-16.452774	100.101668	87.660057	-8.585524	7.534761
4.658537	-1.029337	4.860956	106.942128	0.213984	0.897290	0.663423	-10.264978	-0.283906	-2.053864	6.718422	0.117259	15.744656	-6.903667	0.000000	-4.539929	1.151725	3.807029	13.524923	0.236054	20.166954	-1.618182	0.000000	-1.422898	-0.297337	-7.679757	-2.642465	-0.395458	-8.159741	-2.337680	-0.722944	-8.159741	-1.626231	-0.722944	-6.719787	-1.321303	-0.606329	-6.239802	-0.813044	-0.460574	-5.759817	-10.163621	-3.363530	-42.712502	0.000000	0.000000	-7.301689	0.225498	24.924806	79.514927	8.579656	117.704106	0.056027	0.599661	-69.873668	-24.288959	-40.563335	-5.016232	-17.010326	95.871183	92.412811	-8.766255	4.880510
4.682927	-1.163343	5.142840	106.598389	0.216012	0.897592	0.664390	-10.355991	-0.313321	-1.517217	6.895197	0.120344	15.688287	-7.358659	0.000000	-4.477499	1.194944	3.843122	14.166931	0.247260	20.197569	-2.001088	0.000000	-1.500564	-0.345073	-7.655199	-2.786698	-0.458947	-8.133649	-2.465277	-0.839010	-8.133649	-1.714995	-0.839010	-6.698299	-1.393424	-0.703673	-6.219849	-0.857422	-0.534518	-5.741399	-10.718380	-3.903533	-42.575920	0.000000	0.000000	-7.942739	0.132647	25.262891	79.707507	9.027540	118.137731	0.055383	0.588928	-69.875891	-24.294598	-41.477934	-4.512042	-17.070987	91.875194	92.884020	-8.284778	4.134366
4.707317	-1.415925	5.539625	106.291791	0.218931	0.898136	0.665669	-10.628333	-0.374082	-0.940732	6.951428	0.121325	15.648636	-7.821642	0.000000	-4.538748	1.264624	3.835956	14.819631	0.258651	20.185623	-2.297908	0.000000	-1.581995	-0.399432	-7.620888	-2.937923	-0.531245	-8.097194	-2.599060	-0.971179	-8.097194	-1.808062	-0.971179	-6.668277	-1.469041	-0.814522	-6.191972	-0.903952	-0.618720	-5.715666	-11.300033	-4.518457	-42.385094	0.000000	0.000000	-8.487148	-0.247971	26.060278	80.017054	10.448324	119.838013	0.054469	0.576046	-69.879228	-24.304965	-42.154990	-4.434541	-17.073970	88.409421	92.100047	-8.261023	3.839319
4.731707	-1.769125	5.979113	106.055581	0.222695	0.898867	0.667100	-11.013742	-0.458632	-0.377128	6.896264	0.120363	15.605655	-8.290040	0.000000	-4.670580	1.354339	3.808799	15.444672	0.269560	20.105945	-2.494344	0.000000	-1.659168	-0.457458	-7.572530	-3.081241	-0.608419	-8.045813	-2.725848	-1.112263	-8.045813	-1.896263	-1.112263	-6.625964	-1.540704	-0.932848	-6.152681	-0.948049	-0.708602	-5.679398	-11.851273	-5.174856	-42.116140	0.000000	0.000000	-8.930335	-0.897086	27.312568	80.394383	12.814030	122.768188	0.053311	0.560681	-69.883572	-24.320289	-42.575701	-4.798402	-16.935067	85.452610	91.060156	-8.055338	3.815123
4.756098	-2.202595	6.378108	105.954587	0.227096	0.899672	0.668494	-11.451783	-0.574188	0.007406	6.724456	0.117364	15.592024	-8.632485	0.000000	-4.794094	1.487679	3.902100	16.035554	0.279873	19.917334	-2.729195	0.000000	-1.726126	-0.517305	-7.508765	-3.205589	-0.688016	-7.978063	-2.835853	-1.257776	-7.978063	-1.972790	-1.257776	-6.570170	-1.602881	-1.054889	-6.100872	-0.986309	-0.801306	-5.631574	-12.329548	-5.851863	-41.761500	0.000000	0.000000	-9.263504	-1.751293	28.938687	80.813132	16.002008	126.747686	0.051985	0.543874	-69.888564	-24.340148	-42.827395	-5.575711	-16.576825	83.051550	90.174365	-7.147919	4.130002
4.780488	-2.667975	6.665930	105.881350	0.232099	0.900414	0.669656	-11.811471	-0.711307	0.384504	6.517783	0.113757	15.575007	-8.985634	0.000000	-4.843261	1.627602	3.903229	16.571600	0.289229	19.684150	-2.841460	0.000000	-1.776271	-0.576361	-7.396432	-3.298713	-0.766560	-7.858709	-2.918236	-1.401363	-7.858709	-2.030100	-1.401363	-6.471878	-1.649446	-1.175315	-6.009601	-1.014961	-0.892783	-5.547324	-12.687728	-6.519908	-41.136737	0.000000	0.000000	-9.497232	-2.724989	30.774713	81.254399	19.808291	131.586852	0.050599	0.525597	-69.893738	-24.362951	-42.904293	-6.648212	-15.964054	81.261056	89.487616	-5.686401	5.024887
4.804878	-3.134347	6.816661	105.892904	0.237449	0.901035	0.670468	-12.085394	-0.850388	0.647961	6.266381	0.109369	15.527309	-9.326039	0.000000	-4.786832	1.760833	3.872068	17.054059	0.297649	19.457237	-2.827419	0.000000	-1.811357	-0.632748	-7.237762	-3.363870	-0.841555	-7.690123	-2.975878	-1.538463	-7.690123	-2.070199	-1.538463	-6.333042	-1.682026	-1.290300	-5.880682	-1.035009	-0.980127	-5.428322	-12.938339	-7.157771	-40.254263	0.000000	0.000000	-9.642062	-3.711797	32.637248	81.716589	23.997659	137.070232	0.049234	0.514235	-69.898858	-24.387867	-42.806538	-7.940318	-15.103451	80.060120	89.125253	-4.125551	6.320567
